# xmcd CD database file
#
# Track frame offsets:
#	150
#	12074
#	25968
#	41492
#	58133
#	71161
#	85215
#	99789
#	113290
#	123329
#	134673
#	147537
#
# Disc length: 2094 seconds
#
# Revision: 0
# Processed by: cddbd v1.5.2PL0 Copyright (c) Steve Scherf et al.
# Submitted via: CDex 1.70beta2
#
DISCID=a0082c0c
DTITLE=Joe Mullins and the road ramblers - Rambler's Call
DYEAR=2010
DGENRE=Country
TTITLE0=Another day another dollar
TTITLE1=The Old Rockin' Chair
TTITLE2=Boston Jail
TTITLE3=Farmer's Blues
TTITLE4=No longer an option
TTITLE5=Rambler's Call
TTITLE6=Heaven's green fields
TTITLE7=Smoke Along the track
TTITLE8=Old Blue Tomorrow
TTITLE9=Charlotte Breakdown
TTITLE10=Mountain Girl
TTITLE11=Don't you want to go home
EXTD=YEAR: 2010
EXTT0=
EXTT1=
EXTT2=
EXTT3=
EXTT4=
EXTT5=
EXTT6=
EXTT7=
EXTT8=
EXTT9=
EXTT10=
EXTT11=
PLAYORDER=
